<svg width="42" height="30" viewBox="0 0 42 30" fill="none" xmlns="http://www.w3.org/2000/svg">
<path d="M32.3794 2.63454C27.8752 2.63454 24.4758 5.60903 23.116 10.2832C20.9914 6.96879 19.2917 3.22944 18.3568 0H13.5976V12.4928C13.5976 14.9574 11.558 16.9971 9.09343 16.9971C6.62885 16.9971 4.58921 14.9574 4.58921 12.4928V0.0849848H0V12.5778C0 17.7619 4.16428 21.9262 9.2634 21.9262C14.3625 21.9262 18.5268 17.7619 18.5268 12.5778V10.4532C19.4616 12.3229 20.6514 14.3625 21.9262 16.1472L18.9517 29.9998H23.7959L25.8355 19.8866C27.7052 21.0764 29.8298 21.7562 32.3794 21.7562C37.5635 21.7562 41.8128 17.507 41.8128 12.0679C41.8128 6.88381 37.5635 2.63454 32.3794 2.63454ZM32.3794 16.9971C30.5097 16.9971 28.5551 16.1472 27.0253 14.8724L27.5352 13.0027V12.9178C27.8752 10.8781 28.98 7.4787 32.4644 7.4787C35.0989 7.4787 37.2236 9.60334 37.2236 12.2379C37.1386 14.8724 34.844 16.9971 32.3794 16.9971Z" fill="#C4C4C4"/>
</svg>
