<svg width="44" height="44" viewBox="0 0 44 44" fill="none" xmlns="http://www.w3.org/2000/svg">
<path d="M22 34C18.8174 34 15.7652 32.7357 13.5147 30.4853C11.2643 28.2348 10 25.1826 10 22C10 18.8174 11.2643 15.7652 13.5147 13.5147C15.7652 11.2643 18.8174 10 22 10C25.1826 10 28.2348 11.2643 30.4853 13.5147C32.7357 15.7652 34 18.8174 34 22C34 25.1826 32.7357 28.2348 30.4853 30.4853C28.2348 32.7357 25.1826 34 22 34ZM20 0H24V6H20V0ZM20 38H24V44H20V38ZM5.03 7.858L7.858 5.03L12.1 9.272L9.272 12.1L5.03 7.86V7.858ZM31.9 34.728L34.728 31.9L38.97 36.142L36.142 38.97L31.9 34.728ZM36.142 5.028L38.97 7.858L34.728 12.1L31.9 9.272L36.142 5.03V5.028ZM9.272 31.9L12.1 34.728L7.858 38.97L5.03 36.142L9.272 31.9ZM44 20V24H38V20H44ZM6 20V24H0V20H6Z" fill="white"/>
</svg>
